<svg width="40" height="40" viewBox="0 0 40 40" fill="none" xmlns="http://www.w3.org/2000/svg">
<g clip-path="url(#clip0_23_1280)">
<path d="M32.3894 27.3624C29.2499 27.3624 26.6958 29.9165 26.6958 33.056C26.6958 36.1955 29.2499 38.7497 32.3894 38.7497C35.5289 38.7497 38.0831 36.1955 38.0831 33.056C38.0831 29.9165 35.5289 27.3624 32.3894 27.3624ZM32.3894 37.7598C29.7958 37.7598 27.6856 35.6497 27.6856 33.056C27.6856 30.4623 29.7958 28.3501 32.3894 28.3501C34.983 28.3501 37.0931 30.4612 37.0931 33.056C37.0931 35.6509 34.983 37.7598 32.3894 37.7598Z" fill="#DFF7DF"/>
<path d="M30.7487 26.6292C31.2832 25.6686 31.6869 24.6441 31.9466 23.5794C31.9978 23.3692 32.1862 23.2211 32.4027 23.2211H33.8821C34.2069 23.2211 34.4711 22.9569 34.4711 22.6321V18.699C34.4711 18.3754 34.2069 18.1122 33.8821 18.1122H32.4027C32.1862 18.1122 31.9977 17.964 31.9465 17.7537C31.6484 16.5293 31.1633 15.3604 30.5047 14.2793C30.3921 14.0943 30.4205 13.8562 30.5737 13.7031L31.6212 12.6557C31.7332 12.5443 31.7943 12.3971 31.7943 12.2402C31.7943 12.0833 31.7332 11.9361 31.6221 11.8257L28.8418 9.04317C28.6122 8.81356 28.2385 8.81371 28.0088 9.04317L26.9614 10.0907C26.8084 10.2438 26.5703 10.2724 26.3854 10.1598C25.3063 9.50332 24.1379 9.01887 22.9128 8.71996C22.7026 8.66872 22.5546 8.48036 22.5546 8.26387V6.7845C22.5546 6.45965 22.2903 6.19543 21.9655 6.19543H18.0347C17.7099 6.19543 17.4457 6.45965 17.4457 6.7845V8.26387C17.4457 8.48036 17.2975 8.66887 17.0872 8.72004C15.8636 9.01793 14.6953 9.50246 13.6148 10.1598C13.43 10.2724 13.1918 10.2438 13.0389 10.0907L11.9914 9.04317C11.8809 8.93262 11.7329 8.87176 11.5749 8.87176C11.4168 8.87176 11.2689 8.93262 11.1584 9.04317L8.37683 11.8247C8.26628 11.9353 8.20542 12.0829 8.20542 12.2401C8.20542 12.3974 8.26628 12.545 8.37683 12.6556L9.4266 13.7053C9.57988 13.8586 9.60831 14.0968 9.49535 14.2818C8.83621 15.3616 8.35199 16.5295 8.05613 17.7529C8.00519 17.9636 7.8166 18.1122 7.5998 18.1122H6.11824C5.79339 18.1122 5.52917 18.3754 5.52917 18.699V22.6321C5.52917 22.9569 5.79339 23.2211 6.11824 23.2211H7.5998C7.81652 23.2211 8.00511 23.3695 8.05613 23.5801C8.35285 24.8052 8.83706 25.973 9.49535 27.0514C9.60839 27.2366 9.57988 27.4751 9.42628 27.6284L8.37652 28.6758C8.14714 28.9052 8.14714 29.2789 8.37683 29.5086L11.1582 32.2877C11.2689 32.3984 11.4169 32.4593 11.575 32.4593C11.733 32.4593 11.881 32.3984 11.9915 32.2879L13.0389 31.2404C13.1921 31.0871 13.4306 31.0586 13.6155 31.1716C14.6952 31.8307 15.8631 32.315 17.0867 32.6109C17.2973 32.6618 17.4458 32.8504 17.4458 33.0672V34.5465C17.4458 34.8714 17.71 35.1356 18.0349 35.1356H21.9657C22.2905 35.1356 22.5547 34.8714 22.5547 34.5465V33.0672C22.5547 32.8507 22.7028 32.6624 22.9129 32.6111C23.9799 32.3508 25.0043 31.948 25.9625 31.4164C26.5602 29.0746 28.4072 27.2273 30.7489 26.6292H30.7487ZM19.9857 29.6621C18.4598 29.6621 16.9146 29.2743 15.5011 28.4578C11.2049 25.9784 9.72691 20.465 12.2068 16.1679C14.6893 11.87 20.2035 10.3924 24.4991 12.8734C28.7959 15.3531 30.2739 20.8674 27.7935 25.1655C27.7935 25.1655 27.7935 25.1656 27.7935 25.1657C26.1282 28.0486 23.0974 29.6621 19.9857 29.6621Z" fill="#DFF7DF"/>
<path d="M13.2688 20.1959H13.2577C12.9984 20.1959 12.7882 20.4061 12.7882 20.6655C12.7882 20.9248 12.9984 21.135 13.2577 21.135H13.2688C13.5281 21.135 13.7384 20.9248 13.7384 20.6655C13.7384 20.4061 13.5282 20.1959 13.2688 20.1959Z" fill="#44CE6F"/>
<path d="M26.1205 23.6626L26.1116 23.6559C25.9041 23.5004 25.6099 23.5423 25.4544 23.7498C25.2988 23.9573 25.3409 24.2516 25.5483 24.4071L25.5571 24.4138C25.6416 24.4771 25.7404 24.5077 25.8384 24.5077C25.9812 24.5077 26.1222 24.4428 26.2144 24.3198C26.3699 24.1124 26.3279 23.8181 26.1205 23.6626Z" fill="#44CE6F"/>
<path d="M25.8302 17.7689C25.9007 17.7689 25.9724 17.753 26.0399 17.7192L26.0487 17.7148C26.2806 17.5988 26.3746 17.3168 26.2587 17.0849C26.1427 16.8531 25.8607 16.7588 25.6288 16.8749L25.62 16.8794C25.3881 16.9953 25.2941 17.2774 25.41 17.5092C25.4923 17.6737 25.6581 17.7688 25.8303 17.7688L25.8302 17.7689Z" fill="#44CE6F"/>
<path d="M23.6132 14.4231C23.3908 14.2896 23.1025 14.3619 22.9691 14.5842L22.9624 14.5953C22.8291 14.8176 22.9012 15.106 23.1235 15.2394C23.1992 15.2848 23.2824 15.3064 23.3646 15.3064C23.5242 15.3064 23.6796 15.225 23.7677 15.0783L23.7743 15.0672C23.9077 14.8449 23.8356 14.5565 23.6132 14.4231Z" fill="#44CE6F"/>
<path d="M26.7423 20.1959H26.7313C26.472 20.1959 26.2617 20.4061 26.2617 20.6655C26.2617 20.9248 26.4719 21.135 26.7313 21.135H26.7423C27.0016 21.135 27.2119 20.9248 27.2119 20.6655C27.2119 20.4061 27.0017 20.1959 26.7423 20.1959Z" fill="#44CE6F"/>
<path d="M32.3894 28.35C29.7958 28.35 27.6857 30.4611 27.6857 33.0559C27.6857 35.6508 29.7958 37.7597 32.3894 37.7597C34.983 37.7597 37.0932 35.6496 37.0932 33.0559C37.0932 30.4622 34.983 28.35 32.3894 28.35ZM32.3894 36.8208C30.3136 36.8208 28.6247 35.1319 28.6247 33.056C28.6247 30.9801 30.3136 29.289 32.3894 29.289C34.4653 29.289 36.1541 30.9789 36.1541 33.056C36.1541 35.1331 34.4653 36.8208 32.3894 36.8208Z" fill="#44CE6F"/>
<path d="M38.5526 20.196C38.2933 20.196 38.0831 20.4061 38.0831 20.6655C38.0831 23.1912 37.574 25.6257 36.5711 27.9123C35.4292 26.9822 33.9736 26.4233 32.3894 26.4233C32.2263 26.4233 32.0651 26.4313 31.9049 26.4429C32.2619 25.7094 32.5508 24.9457 32.7661 24.16H33.882C34.7246 24.16 35.4101 23.4746 35.4101 22.6319V18.6989C35.4101 17.8575 34.7247 17.173 33.882 17.173H32.7662C32.4737 16.1034 32.0472 15.0758 31.4949 14.1097L32.2843 13.3203C32.5738 13.0323 32.7333 12.6487 32.7333 12.24C32.7333 11.8314 32.5738 11.4478 32.2853 11.1608L29.5058 8.37925C28.9101 7.7834 27.9406 7.7834 27.3449 8.37925L26.5545 9.16965C25.5901 8.61902 24.5634 8.19332 23.4936 7.9005V6.78457C23.4936 5.94199 22.8081 5.25644 21.9655 5.25644H18.0347C17.1921 5.25644 16.5065 5.94191 16.5065 6.78457V7.90035C15.4378 8.19261 14.411 8.6184 13.4456 9.16965L12.6552 8.37925C12.3673 8.09129 11.9836 7.93277 11.5747 7.93277C11.1659 7.93277 10.7821 8.09129 10.4943 8.37925L7.71272 11.1608C7.42475 11.4487 7.26623 11.8321 7.26623 12.2401C7.26623 12.6482 7.42475 13.0317 7.71272 13.3195L8.50498 14.1118C7.95225 15.077 7.52646 16.1039 7.23553 17.1731H6.11803C5.27545 17.1731 4.5899 17.8576 4.5899 18.6989V22.632C4.5899 23.4746 5.27537 24.1601 6.11803 24.1601H7.23568C7.52709 25.2301 7.95279 26.2568 8.50475 27.2211L7.71272 28.0114C7.42475 28.2993 7.26623 28.6831 7.26623 29.092C7.26623 29.5009 7.42475 29.8846 7.71287 30.1726L10.4942 32.9517C10.7821 33.2396 11.1658 33.3982 11.5747 33.3982C11.9837 33.3982 12.3674 33.2396 12.6552 32.9517L13.4452 32.1617C14.4104 32.7143 15.4372 33.1402 16.5065 33.4312V34.5464C16.5065 35.3889 17.192 36.0745 18.0347 36.0745H21.9655C22.808 36.0745 23.4936 35.389 23.4936 34.5464V33.4305C24.2805 33.2151 25.0441 32.9269 25.7765 32.5715C25.7648 32.7317 25.7569 32.8928 25.7569 33.056C25.7569 34.64 26.3158 36.0957 27.2458 37.2375C24.9593 38.2404 22.5247 38.7496 19.999 38.7496C10.0286 38.7496 1.91709 30.6371 1.91709 20.6654C1.91709 11.325 9.03584 3.61629 18.1327 2.67926L16.4169 3.70144C16.1942 3.83418 16.1212 4.12238 16.2539 4.34512C16.3418 4.49254 16.4977 4.57441 16.6577 4.57441C16.7394 4.57441 16.8222 4.55308 16.8976 4.50816L20.2393 2.5173C20.2415 2.51597 20.2433 2.51433 20.2454 2.51301C20.2609 2.5034 20.2759 2.49308 20.2902 2.48183C20.2919 2.48043 20.2939 2.47918 20.2956 2.47777C20.3108 2.46543 20.3248 2.45199 20.3383 2.43785C20.3417 2.43433 20.3449 2.43066 20.3482 2.42699C20.3594 2.41441 20.3701 2.40137 20.3799 2.38762C20.3816 2.38527 20.3835 2.38301 20.3851 2.38058C20.3964 2.36433 20.4065 2.34722 20.4157 2.32949C20.4172 2.32652 20.4186 2.32347 20.42 2.32051C20.4276 2.30488 20.4344 2.28887 20.4404 2.2723C20.4415 2.2691 20.4427 2.26605 20.4438 2.26285C20.4502 2.24379 20.4555 2.22433 20.4594 2.20433C20.4599 2.20215 20.4601 2.19988 20.4604 2.19777C20.4635 2.18074 20.4655 2.1634 20.4668 2.14574C20.4672 2.14012 20.4675 2.13449 20.4676 2.12887C20.4678 2.12387 20.4684 2.11894 20.4684 2.11394C20.4684 2.10098 20.4675 2.08824 20.4665 2.07551C20.4663 2.07371 20.4665 2.07183 20.4664 2.06996C20.4664 2.06949 20.4662 2.06902 20.4662 2.06855C20.4642 2.04801 20.4606 2.02801 20.4561 2.00832C20.4551 2.00433 20.454 2.00051 20.453 1.9966C20.4486 1.97933 20.4433 1.96254 20.437 1.94613C20.436 1.94348 20.4351 1.94082 20.434 1.93816C20.4265 1.91941 20.4178 1.90137 20.4079 1.88394C20.4064 1.88121 20.4047 1.87863 20.4031 1.87598C20.3944 1.86129 20.3851 1.84723 20.3749 1.83363C20.3723 1.83019 20.3698 1.82668 20.3672 1.82324C20.3551 1.80793 20.3422 1.79332 20.3284 1.77965C20.3265 1.77777 20.3244 1.77613 20.3225 1.77426C20.31 1.76238 20.2969 1.75129 20.2831 1.74082C20.2794 1.73801 20.2757 1.73519 20.2719 1.73246C20.2391 1.70902 20.2033 1.6898 20.1651 1.67527C20.1633 1.67457 20.1616 1.67355 20.1597 1.67293L16.5058 0.339804C16.2626 0.251054 15.9927 0.376288 15.9038 0.61996C15.8149 0.863553 15.9404 1.13301 16.184 1.22191L17.7141 1.78019C13.4987 2.28176 9.59787 4.16715 6.54951 7.21519C2.9567 10.8078 0.978027 15.5846 0.978027 20.6655C0.978027 25.7464 2.9567 30.5237 6.54951 34.1168C10.1422 37.7099 14.9187 39.6886 19.9989 39.6886C22.7685 39.6886 25.434 39.106 27.9282 37.9598C29.1071 39.0332 30.6731 39.6886 32.3894 39.6886C36.0466 39.6886 39.022 36.7132 39.022 33.056C39.022 31.3397 38.3667 29.7737 37.2932 28.5947C38.4394 26.1006 39.022 23.435 39.022 20.6655C39.022 20.4062 38.8119 20.196 38.5525 20.196H38.5526ZM22.9128 32.611C22.7026 32.6622 22.5546 32.8506 22.5546 33.0671V34.5464C22.5546 34.8712 22.2904 35.1354 21.9655 35.1354H18.0347C17.7099 35.1354 17.4457 34.8712 17.4457 34.5464V33.0671C17.4457 32.8503 17.2972 32.6618 17.0865 32.6107C15.8629 32.3148 14.6951 31.8306 13.6154 31.1714C13.4304 31.0585 13.1919 31.0869 13.0388 31.2402L11.9914 32.2877C11.8808 32.3982 11.7329 32.4591 11.5748 32.4591C11.4168 32.4591 11.2688 32.3982 11.1581 32.2875L8.3767 29.5085C8.14709 29.2788 8.14709 28.905 8.37639 28.6757L9.42615 27.6282C9.57975 27.475 9.60826 27.2364 9.49522 27.0513C8.83693 25.9728 8.35272 24.805 8.056 23.58C8.00498 23.3694 7.81647 23.221 7.59967 23.221H6.11811C5.79326 23.221 5.52904 22.9568 5.52904 22.6319V18.6989C5.52904 18.3752 5.79326 18.112 6.11811 18.112H7.59967C7.81639 18.112 8.00498 17.9635 8.056 17.7528C8.35186 16.5293 8.83607 15.3615 9.49522 14.2817C9.60818 14.0967 9.57975 13.8584 9.42647 13.7051L8.3767 12.6554C8.26615 12.5449 8.20529 12.3973 8.20529 12.24C8.20529 12.0826 8.26615 11.9351 8.3767 11.8246L11.1583 9.043C11.2687 8.93246 11.4167 8.8716 11.5747 8.8716C11.7328 8.8716 11.8808 8.93246 11.9913 9.043L13.0387 10.0905C13.1917 10.2436 13.4298 10.2722 13.6147 10.1596C14.6952 9.5023 15.8635 9.01785 17.0871 8.71988C17.2974 8.66871 17.4455 8.48027 17.4455 8.26371V6.78433C17.4455 6.45949 17.7097 6.19527 18.0346 6.19527H21.9654C22.2902 6.19527 22.5544 6.45949 22.5544 6.78433V8.26371C22.5544 8.48019 22.7025 8.66855 22.9127 8.7198C24.1379 9.01863 25.3062 9.50308 26.3853 10.1596C26.5702 10.2722 26.8083 10.2436 26.9612 10.0905L28.0087 9.043C28.2383 8.81347 28.6121 8.81332 28.8416 9.043L31.6219 11.8255C31.733 11.936 31.7941 12.0832 31.7941 12.24C31.7941 12.3969 31.733 12.5442 31.6211 12.6555L30.5736 13.7029C30.4204 13.8561 30.3919 14.0942 30.5046 14.2791C31.1632 15.3603 31.6483 16.5292 31.9464 17.7535C31.9976 17.9639 32.186 18.112 32.4026 18.112H33.8819C34.2068 18.112 34.471 18.3752 34.471 18.6989V22.6319C34.471 22.9568 34.2068 23.221 33.8819 23.221H32.4026C32.1861 23.221 31.9977 23.369 31.9465 23.5793C31.6868 24.6439 31.2829 25.6684 30.7486 26.629C28.4069 27.2271 26.5599 29.0745 25.9622 31.4163C25.004 31.9478 23.9796 32.3507 22.9126 32.611H22.9128ZM38.0832 33.0559C38.0832 36.1954 35.529 38.7496 32.3895 38.7496C29.25 38.7496 26.6959 36.1954 26.6959 33.0559C26.6959 29.9164 29.25 27.3623 32.3895 27.3623C35.529 27.3623 38.0832 29.9164 38.0832 33.0559Z" fill="#44CE6F"/>
<path d="M27.7934 25.1654C30.2738 20.8673 28.7958 15.353 24.499 12.8733C20.2035 10.3923 14.6893 11.8698 12.2067 16.1677C9.72681 20.4649 11.2048 25.9782 15.501 28.4577C16.9146 29.2741 18.4597 29.662 19.9856 29.662C23.0972 29.662 26.1279 28.0485 27.7933 25.1656C27.7933 25.1656 27.7933 25.1655 27.7933 25.1654H27.7934ZM15.9706 27.6444C12.1225 25.4237 10.7989 20.4858 13.0199 16.6372C14.5122 14.0538 17.2268 12.6082 20.0144 12.6082C21.3802 12.6082 22.7642 12.9556 24.0295 13.6865C27.8781 15.9075 29.2017 20.8463 26.9801 24.696C24.7569 28.5438 19.8182 29.867 15.9706 27.6444Z" fill="#44CE6F"/>
<path d="M34.0284 31.3134L31.6421 33.6997L30.8251 32.2833C30.6956 32.0588 30.4086 31.9816 30.1838 32.1112C29.9592 32.2408 29.8822 32.5279 30.0118 32.7525L31.1346 34.6991C31.2076 34.8255 31.3351 34.9109 31.4799 34.9299C31.5004 34.9326 31.5208 34.934 31.5412 34.934C31.6649 34.934 31.7846 34.8851 31.8732 34.7964L34.6923 31.9773C34.8757 31.7939 34.8757 31.4967 34.6923 31.3134C34.509 31.1299 34.2117 31.1299 34.0284 31.3134Z" fill="#44CE6F"/>
<path d="M16.8767 26.0917C16.6542 25.9581 16.366 26.0305 16.2325 26.2527L16.2259 26.2638C16.0925 26.4862 16.1646 26.7745 16.387 26.908C16.4626 26.9534 16.5459 26.9749 16.6281 26.9749C16.7876 26.9749 16.9431 26.8936 17.0311 26.7469L17.0378 26.7358C17.1711 26.5134 17.099 26.2251 16.8767 26.0917Z" fill="#44CE6F"/>
<path d="M14.3801 16.8794L14.3713 16.8749C14.1392 16.7588 13.8574 16.853 13.7414 17.0849C13.6255 17.3169 13.7195 17.5988 13.9514 17.7148L13.9603 17.7192C14.0277 17.753 14.0992 17.7689 14.1699 17.7689C14.3421 17.7689 14.5079 17.6737 14.5902 17.5093C14.7061 17.2773 14.6121 16.9954 14.3802 16.8795L14.3801 16.8794Z" fill="#44CE6F"/>
<path d="M13.8885 23.656L13.8797 23.6626C13.6723 23.8181 13.6303 24.1124 13.7858 24.3199C13.8781 24.4428 14.019 24.5077 14.1617 24.5077C14.2597 24.5077 14.3586 24.477 14.4431 24.4138L14.4519 24.4071C14.6593 24.2516 14.7013 23.9573 14.5458 23.7499C14.3903 23.5424 14.096 23.5003 13.8885 23.656Z" fill="#44CE6F"/>
<path d="M19.9988 26.9282C19.7395 26.9282 19.5293 27.1384 19.5293 27.3978V27.4088C19.5293 27.6681 19.7395 27.8784 19.9988 27.8784C20.2582 27.8784 20.4684 27.6682 20.4684 27.4088V27.3978C20.4684 27.1385 20.2582 26.9282 19.9988 26.9282Z" fill="#44CE6F"/>
<path d="M17.031 14.5841C16.8976 14.3618 16.6093 14.2897 16.3868 14.423C16.1645 14.5564 16.0924 14.8448 16.2258 15.0671L16.2324 15.0782C16.3204 15.2249 16.4759 15.3062 16.6354 15.3062C16.7176 15.3062 16.8009 15.2846 16.8765 15.2393C17.0989 15.1059 17.171 14.8175 17.0376 14.5952L17.031 14.5841Z" fill="#44CE6F"/>
<path d="M23.3773 22.6166C23.507 22.392 23.4301 22.1049 23.2055 21.9752L20.4684 20.3946V16.5398C20.4684 16.2805 20.2582 16.0703 19.9988 16.0703C19.7395 16.0703 19.5293 16.2805 19.5293 16.5398V20.6656C19.5293 20.8333 19.6188 20.9884 19.7641 21.0722L22.736 22.7884C22.8099 22.8312 22.8906 22.8515 22.9703 22.8515C23.1326 22.8515 23.2904 22.7673 23.3773 22.6166V22.6166Z" fill="#44CE6F"/>
<path d="M23.7677 26.2526C23.6343 26.0304 23.346 25.9583 23.1235 26.0915C22.9012 26.225 22.8291 26.5133 22.9624 26.7357L22.9691 26.7468C23.0571 26.8935 23.2126 26.9748 23.3721 26.9748C23.4543 26.9748 23.5376 26.9532 23.6132 26.9079C23.8356 26.7744 23.9077 26.4861 23.7743 26.2637L23.7677 26.2526Z" fill="#44CE6F"/>
<path d="M19.9988 14.4049C20.2581 14.4049 20.4684 14.1947 20.4684 13.9353V13.922C20.4684 13.6627 20.2582 13.4525 19.9988 13.4525C19.7395 13.4525 19.5293 13.6627 19.5293 13.922V13.9353C19.5293 14.1946 19.7395 14.4049 19.9988 14.4049Z" fill="#44CE6F"/>
</g>
<defs>
<clipPath id="clip0_23_1280">
<rect width="40" height="40" fill="white"/>
</clipPath>
</defs>
</svg>
