<svg width="40" height="40" viewBox="0 0 40 40" fill="none" xmlns="http://www.w3.org/2000/svg">
<g clip-path="url(#clip0_23_1259)">
<path d="M8.25313 31.3149C8.37024 31.4808 8.39946 31.6933 8.33149 31.8846L7.63446 33.8464L11.1892 29.922H9.15172C8.92844 29.922 8.72211 29.803 8.61047 29.6095C8.49875 29.4161 8.49875 29.178 8.61047 28.9845L9.90555 26.7413H8.28305L5.78625 31.0503H7.7425C7.94563 31.0503 8.13602 31.149 8.25313 31.3149Z" fill="#DFF7DF"/>
<path d="M20 20.891C20.4921 20.891 20.891 20.4921 20.891 20C20.891 19.5079 20.4921 19.109 20 19.109C19.5079 19.109 19.109 19.5079 19.109 20C19.109 20.4921 19.5079 20.891 20 20.891Z" fill="#DFF7DF"/>
<path d="M20.625 35.3835V38.5052C23.5392 38.408 26.2845 37.6333 28.7095 36.3351L27.149 33.6323C25.1849 34.6665 22.972 35.2894 20.625 35.3836V35.3835Z" fill="#DFF7DF"/>
<path d="M11.7696 6.99449L10.2087 4.29089C7.81598 5.78777 5.78887 7.81644 4.29199 10.2093L6.99441 11.7695C8.21457 9.84816 9.84848 8.21464 11.7697 6.99441L11.7696 6.99449Z" fill="#DFF7DF"/>
<path d="M6.36764 12.851L3.66483 11.2905C2.36663 13.7154 1.59202 16.4608 1.49475 19.375H4.61647C4.71061 17.028 5.3335 14.8151 6.36772 12.851H6.36764Z" fill="#DFF7DF"/>
<path d="M19.375 4.61758V1.49609C16.4609 1.59328 13.7152 2.36648 11.2904 3.66461L12.8508 6.36711C14.8148 5.33297 17.0282 4.7118 19.3751 4.61766L19.375 4.61758Z" fill="#DFF7DF"/>
<path d="M28.7095 3.66484C26.2846 2.3668 23.5391 1.59328 20.625 1.49609V4.61773C22.9719 4.71195 25.1849 5.33375 27.1489 6.36789L28.7095 3.66492L28.7095 3.66484Z" fill="#DFF7DF"/>
<path d="M33.0058 11.7695L35.7082 10.2093C34.2114 7.81648 32.1837 5.78874 29.7909 4.29187L28.2306 6.99429C30.1519 8.21445 31.7857 9.84828 33.0058 11.7695Z" fill="#DFF7DF"/>
<path d="M35.3823 19.375H38.5039C38.4067 16.4608 37.6332 13.7154 36.3352 11.2905L33.6322 12.8512C34.6663 14.8151 35.2881 17.0282 35.3823 19.375Z" fill="#DFF7DF"/>
<path d="M28.2306 33.0057L29.7908 35.7081C32.1836 34.2112 34.2124 32.1841 35.7093 29.7913L33.0057 28.2303C31.7855 30.1517 30.1519 31.7855 28.2306 33.0057Z" fill="#DFF7DF"/>
<path d="M33.6328 27.1493L36.3353 28.7096C37.6334 26.2848 38.4066 23.5391 38.5038 20.625H35.3823C35.288 22.9719 34.667 25.1853 33.6328 27.1493Z" fill="#DFF7DF"/>
<path d="M16.8044 25.7029C16.4593 25.7029 16.1794 25.9827 16.1794 26.3279C16.1794 26.673 16.4593 26.9529 16.8044 26.9529H23.6657C24.0108 26.9529 24.2907 26.673 24.2907 26.3279V23.5587C24.2907 23.2136 24.0108 22.9337 23.6657 22.9337H13.953C13.6078 22.9337 13.328 23.2136 13.328 23.5587C13.328 23.9039 13.6078 24.1837 13.953 24.1837H23.0407V25.7029H16.8044Z" fill="#44CE6F"/>
<path d="M23.6051 13.7557C23.3062 13.5829 22.924 13.6855 22.7514 13.9844L20.4824 17.9144C20.3272 17.8785 20.1658 17.8589 19.9999 17.8589C18.8194 17.8589 17.8589 18.8194 17.8589 19.9999C17.8589 21.1805 18.8194 22.141 19.9999 22.141C21.1804 22.141 22.1409 21.1805 22.1409 19.9999C22.1409 19.4363 21.9216 18.9231 21.5643 18.5403L23.8338 14.6094C24.0065 14.3105 23.904 13.9282 23.6051 13.7557H23.6051ZM20 20.891C19.5087 20.891 19.109 20.4913 19.109 19.9999C19.109 19.5086 19.5087 19.1089 20 19.1089C20.4913 19.1089 20.891 19.5086 20.891 19.9999C20.891 20.4913 20.4913 20.891 20 20.891Z" fill="#44CE6F"/>
<path d="M8.65039 39.7657C13.2909 39.7657 17.0663 35.9903 17.0663 31.3497C17.0663 26.709 13.291 22.9337 8.65039 22.9337C4.00977 22.9337 0.234375 26.7091 0.234375 31.3497C0.234375 35.9902 4.00977 39.7657 8.65039 39.7657ZM8.65039 24.1838C12.6016 24.1838 15.8163 27.3984 15.8163 31.3497C15.8163 35.3011 12.6017 38.5157 8.65039 38.5157C4.69906 38.5157 1.48438 35.3011 1.48438 31.3497C1.48438 27.3983 4.69898 24.1838 8.65039 24.1838Z" fill="#44CE6F"/>
<path d="M4.70196 32.3003H6.85735L5.41009 36.3738C5.31032 36.6545 5.42259 36.9666 5.67837 37.1195C5.77814 37.1791 5.88884 37.2081 5.99876 37.2081C6.17056 37.2081 6.34025 37.1373 6.46228 37.0027L13.0621 29.7166C13.2281 29.5334 13.2705 29.2696 13.1703 29.0437C13.0701 28.8177 12.8462 28.672 12.599 28.672H10.2345L11.5296 26.4288C11.6413 26.2354 11.6413 25.9973 11.5296 25.8038C11.418 25.6104 11.2117 25.4913 10.9884 25.4913H7.92321C7.70024 25.4913 7.49423 25.6102 7.38243 25.803L4.16142 31.362C4.04931 31.5553 4.04907 31.7938 4.16064 31.9873C4.27228 32.181 4.47868 32.3003 4.7022 32.3003H4.70196ZM8.28321 26.7413H9.90571L8.61064 28.9845C8.49892 29.178 8.49892 29.4161 8.61064 29.6095C8.72228 29.803 8.92853 29.922 9.15189 29.922H11.1894L7.63462 33.8464L8.33165 31.8846C8.39962 31.6933 8.3704 31.4808 8.25329 31.3149C8.13618 31.149 7.94579 31.0503 7.74274 31.0503H5.78649L8.28321 26.7413Z" fill="#44CE6F"/>
<path d="M0.859375 20.625H5.22898C5.57414 20.625 5.85398 20.3452 5.85398 20C5.85398 12.1998 12.1999 5.85398 20 5.85398C27.8001 5.85398 34.146 12.1999 34.146 20C34.146 27.8001 27.8001 34.146 20 34.146C19.6548 34.146 19.375 34.4259 19.375 34.771V39.1406C19.375 39.4858 19.6548 39.7656 20 39.7656C25.2796 39.7656 30.2432 37.7097 33.9764 33.9763C37.7096 30.2431 39.7656 25.2796 39.7656 20C39.7656 14.7204 37.7097 9.75688 33.9764 6.02367C30.2432 2.29031 25.2796 0.234375 20 0.234375C14.7204 0.234375 9.75688 2.29031 6.02367 6.02367C2.29031 9.75688 0.234375 14.7204 0.234375 20C0.234375 20.3452 0.514219 20.625 0.859375 20.625ZM20.625 38.5052V35.3835C22.972 35.2894 25.1849 34.6665 27.149 33.6323L28.7095 36.3351C26.2845 37.6333 23.5391 38.4079 20.625 38.5052V38.5052ZM29.7907 35.708L28.2305 33.0056C30.1518 31.7855 31.7853 30.1516 33.0055 28.2303L35.7091 29.7913C34.2122 32.1841 32.1835 34.2112 29.7906 35.708H29.7907ZM36.3354 28.7096L33.6329 27.1493C34.667 25.1853 35.2882 22.9719 35.3823 20.625H38.5039C38.4067 23.5391 37.6335 26.2848 36.3354 28.7096ZM38.5039 19.375H35.3823C35.288 17.0281 34.6663 14.8152 33.6322 12.8512L36.3352 11.2905C37.6332 13.7154 38.4067 16.4609 38.5039 19.375ZM35.7081 10.2092L33.0057 11.7695C31.7855 9.84813 30.1518 8.21438 28.2305 6.99422L29.7908 4.2918C32.1836 5.78867 34.2113 7.81641 35.7081 10.2092ZM20.625 1.49609C23.5391 1.59328 26.2846 2.3668 28.7095 3.66484L27.1488 6.36781C25.1848 5.33367 22.9718 4.71187 20.6249 4.61766V1.49609H20.625ZM19.375 1.49609V4.61766C17.0281 4.71187 14.8147 5.33305 12.8507 6.36711L11.2903 3.66461C13.7152 2.36648 16.4609 1.59328 19.3749 1.49609H19.375ZM10.2087 4.29094L11.7696 6.99453C9.84836 8.21477 8.21445 9.84828 6.9943 11.7696L4.29187 10.2094C5.78875 7.81656 7.81586 5.78781 10.2086 4.29102L10.2087 4.29094ZM3.66484 11.2905L6.36766 12.851C5.33344 14.8151 4.71063 17.028 4.61641 19.375H1.49477C1.59203 16.4608 2.36672 13.7155 3.66484 11.2905Z" fill="#44CE6F"/>
<path d="M13.8642 10.6226L14.3338 11.436C14.4496 11.6364 14.6596 11.7485 14.8757 11.7485C14.9817 11.7485 15.0892 11.7215 15.1876 11.6647C15.4865 11.4921 15.589 11.1099 15.4163 10.811L14.9456 9.99558C16.2898 9.3137 17.7889 8.89495 19.3749 8.80737V9.75034C19.3749 10.0955 19.6548 10.3753 19.9999 10.3753C20.3451 10.3753 20.6249 10.0955 20.6249 9.75034V8.80737C22.211 8.89495 23.7101 9.3137 25.0543 9.99558L24.5835 10.811C24.4109 11.1099 24.5134 11.4921 24.8123 11.6647C24.9107 11.7216 25.0181 11.7485 25.1242 11.7485C25.3402 11.7485 25.5503 11.6364 25.666 11.436L26.1356 10.6226C27.4253 11.4693 28.5306 12.5746 29.3774 13.8643L28.564 14.3339C28.2651 14.5065 28.1626 14.8888 28.3353 15.1877C28.451 15.3882 28.661 15.5003 28.8771 15.5003C28.9831 15.5003 29.0906 15.4732 29.189 15.4164L30.0044 14.9457C30.6863 16.2899 31.105 17.7889 31.1926 19.375H30.2497C29.9046 19.375 29.6247 19.6549 29.6247 20C29.6247 20.3452 29.9046 20.625 30.2497 20.625H31.1926C31.105 22.2111 30.6863 23.7102 30.0044 25.0544L29.189 24.5836C28.89 24.411 28.5078 24.5135 28.3353 24.8124C28.1626 25.1113 28.2651 25.4935 28.564 25.6661L29.3774 26.1357C28.5306 27.4255 27.4254 28.5307 26.1356 29.3775L25.666 28.5641C25.4935 28.2653 25.1113 28.1626 24.8123 28.3353C24.5134 28.5079 24.4109 28.8902 24.5835 29.1891L25.0543 30.0045C23.7101 30.6864 22.211 31.1051 20.6249 31.1927V30.2497C20.6249 29.9046 20.3451 29.6247 19.9999 29.6247C19.6548 29.6247 19.3749 29.9046 19.3749 30.2497V31.8353C19.3749 32.1805 19.6548 32.4603 19.9999 32.4603C22.2546 32.4603 24.3714 31.8585 26.198 30.8068C26.2087 30.8014 26.2196 30.797 26.2301 30.791C26.2492 30.7799 26.2675 30.7679 26.2851 30.7552C28.1344 29.6703 29.6804 28.1225 30.7631 26.2717C30.7724 26.258 30.7824 26.2449 30.7908 26.2303C30.7996 26.2149 30.8074 26.1992 30.8148 26.1835C31.8613 24.3603 32.4602 22.2489 32.4602 20.0001C32.4602 17.7514 31.8613 15.64 30.8148 13.8167C30.8074 13.801 30.7996 13.7853 30.7908 13.77C30.7796 13.7507 30.7676 13.7322 30.7547 13.7146C29.6725 11.87 28.1296 10.3271 26.285 9.24503C26.2674 9.23229 26.2492 9.22034 26.23 9.20925C26.2152 9.20065 26.2 9.19331 26.1848 9.18612C24.3612 8.13909 22.2492 7.53979 19.9999 7.53979C17.7505 7.53979 15.6384 8.13909 13.8147 9.1862C13.7996 9.19339 13.7845 9.20073 13.7697 9.20925C13.7506 9.22034 13.7323 9.23229 13.7147 9.24503C11.8699 10.3273 10.3271 11.8702 9.24478 13.715C9.23205 13.7325 9.2201 13.7508 9.209 13.77C9.20049 13.7848 9.19307 13.8 9.18588 13.8152C8.13885 15.6388 7.53955 17.7507 7.53955 20.0001C7.53955 20.3453 7.81939 20.6251 8.16455 20.6251H9.75018C10.0953 20.6251 10.3752 20.3453 10.3752 20.0001C10.3752 19.655 10.0953 19.3751 9.75018 19.3751H8.80721C8.89479 17.789 9.31354 16.29 9.99541 14.9457L10.8109 15.4165C10.9093 15.4734 11.0167 15.5003 11.1228 15.5003C11.3388 15.5003 11.5488 15.3882 11.6646 15.1878C11.8373 14.8889 11.7348 14.5066 11.4359 14.334L10.6224 13.8644C11.4692 12.5747 12.5744 11.4695 13.8642 10.6228L13.8642 10.6226Z" fill="#44CE6F"/>
</g>
<defs>
<clipPath id="clip0_23_1259">
<rect width="40" height="40" fill="white"/>
</clipPath>
</defs>
</svg>
