<svg width="40" height="40" viewBox="0 0 40 40" fill="none" xmlns="http://www.w3.org/2000/svg">
<g clip-path="url(#clip0_23_1189)">
<path fill-rule="evenodd" clip-rule="evenodd" d="M20.0001 13.0398C16.1621 13.0398 13.0394 16.1622 13.0394 20.0002C13.0394 23.8379 16.1622 26.961 20.0001 26.961C23.8378 26.961 26.9605 23.8379 26.9605 20.0002C26.9605 16.1623 23.8379 13.0398 20.0001 13.0398ZM28.9074 16.3105C29.3001 17.2587 30.1763 17.8443 31.2026 17.8443H32.7124C33.0167 17.8443 33.268 18.0957 33.268 18.4V21.6005C33.268 21.9048 33.0167 22.1562 32.7124 22.1562H31.2026C30.1761 22.1562 29.3 22.7415 28.9072 23.69C28.5159 24.635 28.7228 25.6738 29.4459 26.3971L30.5135 27.4649C30.6182 27.5696 30.6752 27.7104 30.6752 27.8579C30.6752 28.0051 30.6177 28.1463 30.5135 28.2506L28.2505 30.5141C28.1458 30.6188 28.0049 30.6753 27.8575 30.6753C27.7101 30.6753 27.5693 30.6188 27.4646 30.514L26.3969 29.4458C25.6738 28.7224 24.6345 28.5158 23.6897 28.9075C22.7416 29.3004 22.156 30.1761 22.156 31.2025V32.7125C22.156 33.0168 21.9047 33.2682 21.6004 33.2682H18.3999C18.0955 33.2682 17.8442 33.0168 17.8442 32.7125V31.2025C17.8442 30.1761 17.2587 29.3003 16.3105 28.9075C16.003 28.7801 15.6754 28.7109 15.3422 28.7109C14.6819 28.7109 14.0694 28.9794 13.6033 29.4458L12.5357 30.514C12.431 30.6187 12.2902 30.6752 12.1426 30.6752C11.9952 30.6752 11.8544 30.6186 11.7498 30.514L9.48662 28.2505C9.38232 28.1462 9.3249 28.005 9.3249 27.8579C9.3249 27.7103 9.38193 27.5695 9.48662 27.4648L10.5544 26.397C11.2775 25.6738 11.4843 24.6348 11.0929 23.6899C10.7001 22.7416 9.82412 22.1561 8.79764 22.1561H7.28764C6.98326 22.1561 6.73201 21.9048 6.73201 21.6004L6.73193 18.3999C6.73193 18.0955 6.98334 17.8442 7.28764 17.8442H8.79756C9.82381 17.8442 10.7001 17.2586 11.0928 16.3104C11.4842 15.3655 11.2776 14.3262 10.5543 13.603L9.48654 12.5355C9.38209 12.4311 9.32475 12.2901 9.32475 12.1428C9.32475 11.9954 9.38193 11.8543 9.48646 11.7497L11.7497 9.48661C11.8541 9.38216 11.9952 9.32474 12.1425 9.32474C12.2899 9.32474 12.4309 9.38208 12.5354 9.48661L13.603 10.554C14.3263 11.2772 15.3653 11.4844 16.3104 11.0929C17.2586 10.7 17.844 9.8238 17.844 8.79747V7.28755C17.844 6.98333 18.0955 6.73224 18.3997 6.73224H21.6002C21.9044 6.73224 22.1558 6.98341 22.1558 7.28755V8.79755C22.1558 9.82372 22.7412 10.7003 23.6894 11.0929C24.6345 11.4843 25.6734 11.2774 26.3968 10.5542L27.4644 9.48677C27.5689 9.38232 27.7099 9.3249 27.8572 9.3249C28.0046 9.3249 28.1458 9.38232 28.2502 9.48677L30.5133 11.7499C30.6178 11.8545 30.6751 11.9955 30.6751 12.1429C30.6751 12.2902 30.6177 12.4312 30.5133 12.5357L29.4457 13.6032C28.7224 14.3265 28.5159 15.3654 28.9074 16.3105Z" fill="#DFF7DF"/>
<path fill-rule="evenodd" clip-rule="evenodd" d="M9.63935 35.1388C9.52466 35.2954 9.3467 35.3779 9.16654 35.3779C9.04623 35.3779 8.92474 35.3414 8.82037 35.2648C6.4731 33.5429 4.52623 31.2702 3.19021 28.692C1.8092 26.0272 1.07927 23.0219 1.07927 19.9997C1.07927 17.7174 1.47943 15.5 2.26716 13.3919L0.88654 13.9586C0.587165 14.0813 0.2449 13.9384 0.121931 13.6392C-0.000959702 13.3396 0.142087 12.9973 0.441462 12.8746L3.12623 11.7724C3.4256 11.6494 3.76802 11.7928 3.89076 12.0919L4.99287 14.7766C5.11576 15.0761 4.97271 15.4185 4.67334 15.5412C4.60052 15.5714 4.52506 15.5854 4.45099 15.5854C4.22045 15.5854 4.00177 15.4483 3.90881 15.2217L3.34646 13.8517C2.61998 15.8139 2.25099 17.8765 2.25099 19.9997C2.25099 25.6303 4.96599 30.9835 9.51349 34.3196C9.77451 34.511 9.83084 34.8783 9.63935 35.1388ZM35.265 31.1803C33.5433 33.5275 31.2703 35.4741 28.692 36.8102C26.0272 38.1905 23.0215 38.9211 20.0001 38.9211C17.7169 38.9211 15.4997 38.521 13.3921 37.7328L13.9586 39.1132C14.0816 39.4131 13.9385 39.7554 13.6391 39.8781C13.5665 39.9079 13.491 39.9219 13.4169 39.9219C13.1861 39.9219 12.9676 39.7852 12.8747 39.5586L11.7726 36.8732C11.7136 36.7298 11.7141 36.5685 11.774 36.4251C11.8339 36.2818 11.9485 36.1679 12.0922 36.1093L14.7771 35.0068C15.0765 34.8841 15.4187 35.0271 15.5415 35.3263C15.6645 35.6259 15.5214 35.9685 15.222 36.0913L13.8516 36.6539C15.8133 37.3795 17.876 37.749 20.0002 37.749C25.6312 37.749 30.9845 35.0341 34.3202 30.4875C34.5116 30.2263 34.8784 30.1703 35.1393 30.3615C35.4 30.5532 35.4564 30.9195 35.265 31.1803ZM4.73537 8.82042C6.45724 6.47323 8.73013 4.52628 11.3081 3.19018C13.9729 1.80948 16.9786 1.07917 20.0001 1.07917C22.2829 1.07917 24.5 1.47932 26.6079 2.26674L26.0414 0.886822C25.9186 0.58729 26.0615 0.244946 26.3609 0.122212C26.6603 -0.000834934 27.0026 0.142134 27.1255 0.441665L28.2276 3.12635C28.2867 3.27003 28.2861 3.43143 28.2262 3.57479C28.1662 3.71846 28.0519 3.83198 27.9081 3.89128L25.2232 4.99299C25.1503 5.02284 25.0751 5.03721 25.0008 5.03721C24.7702 5.03721 24.5516 4.9001 24.4586 4.67354C24.3358 4.37401 24.479 4.03206 24.7783 3.90893L26.1493 3.34628C24.187 2.62003 22.1243 2.2512 20.0001 2.2512C14.3696 2.2512 9.01638 4.96612 5.68045 9.51339C5.5656 9.66995 5.38771 9.75292 5.20748 9.75292C5.08716 9.75292 4.96584 9.71604 4.86131 9.6394C4.60037 9.44792 4.54396 9.08128 4.73537 8.82042ZM39.5586 27.1257L36.8736 28.2274C36.8023 28.2568 36.7268 28.272 36.6511 28.272C36.5742 28.272 36.4975 28.2561 36.4252 28.2267C36.2817 28.1663 36.1681 28.0517 36.109 27.9076L35.007 25.2233C34.8841 24.9245 35.0272 24.5814 35.3265 24.4583C35.6259 24.336 35.9682 24.4789 36.0911 24.7782L36.6536 26.1485C37.3801 24.1868 37.749 22.1244 37.749 19.9998C37.749 14.3692 35.0344 9.01565 30.4875 5.67987C30.2265 5.48862 30.1701 5.12159 30.3615 4.86112C30.5531 4.59987 30.9197 4.54385 31.1807 4.7351C33.5276 6.45698 35.4743 8.73011 36.8102 11.3079C38.1911 13.9731 38.9207 16.9787 38.9207 19.9998C38.9207 22.2832 38.5205 24.5007 37.7331 26.6076L39.1134 26.0413C39.4129 25.9186 39.7549 26.0616 39.878 26.3607C40.0011 26.66 39.8578 27.003 39.5586 27.1257ZM17.6424 18.3792C17.6424 17.3114 18.4049 16.4186 19.414 16.216V15.661C19.414 15.3375 19.6763 15.0752 20 15.0752C20.3235 15.0752 20.5859 15.3375 20.5859 15.661V16.2521C21.519 16.5092 22.2065 17.3656 22.2065 18.3792C22.2065 18.7032 21.9441 18.9655 21.6205 18.9655C21.297 18.9655 21.0346 18.7032 21.0346 18.3792C21.0346 17.8089 20.5704 17.345 19.9998 17.345H19.8488C19.2783 17.345 18.8142 17.8089 18.8142 18.3792C18.8142 18.95 19.2783 19.4143 19.8488 19.4143H20.1509C21.3676 19.4143 22.3574 20.404 22.3574 21.6207C22.3574 22.6889 21.595 23.5821 20.5858 23.7844V24.3389C20.5858 24.6625 20.3234 24.9248 19.9999 24.9248C19.6762 24.9248 19.414 24.6625 19.414 24.3389V23.7487C18.4807 23.4915 17.7934 22.6344 17.7934 21.6207C17.7934 21.2972 18.0557 21.0349 18.3793 21.0349C18.7029 21.0349 18.9652 21.2972 18.9652 21.6207C18.9652 22.1911 19.4294 22.6554 19.9998 22.6554H20.151C20.7215 22.6554 21.1858 22.1911 21.1858 21.6207C21.1858 21.0503 20.7215 20.586 20.151 20.586H19.8489C18.6322 20.586 17.6424 19.5964 17.6424 18.3792ZM20.0001 13.899C16.6359 13.899 13.8988 16.636 13.8988 20.0002C13.8988 23.3639 16.6358 26.1014 20.0001 26.1014C23.3643 26.1014 26.1011 23.364 26.1011 20.0002C26.1011 16.636 23.3642 13.899 20.0001 13.899ZM20.0001 27.2735C24.0104 27.2735 27.273 24.0103 27.273 20.0002C27.273 15.9897 24.0103 12.7273 20.0001 12.7273C15.9896 12.7273 12.7269 15.9897 12.7269 20.0002C12.7269 24.0103 15.9896 27.2735 20.0001 27.2735ZM9.70748 28.0296L11.9707 30.2931C12.0317 30.3539 12.1046 30.3628 12.1426 30.3628C12.1806 30.3628 12.2534 30.3539 12.3146 30.2931L13.3822 29.2249C13.9242 28.6828 14.6222 28.3984 15.3421 28.3984C15.705 28.3984 16.0731 28.471 16.4301 28.6187C17.4951 29.0601 18.1565 30.0499 18.1565 31.2025V32.7125C18.1565 32.8443 18.2679 32.9557 18.3997 32.9557H21.6003C21.732 32.9557 21.8433 32.8444 21.8433 32.7125V31.2025C21.8433 30.0499 22.5049 29.0602 23.5698 28.6187C24.6349 28.1773 25.8028 28.4101 26.6178 29.2248L27.6854 30.293C27.7466 30.3538 27.8194 30.3627 27.8573 30.3627C27.8953 30.3627 27.9683 30.3539 28.0294 30.293L30.2924 28.0295C30.3536 27.9687 30.3626 27.8953 30.3626 27.8578C30.3626 27.8195 30.3536 27.7468 30.2924 27.6857L29.2248 26.6179C28.4097 25.8032 28.1775 24.6352 28.6184 23.5703C29.0596 22.5051 30.0497 21.8436 31.2025 21.8436H32.7123C32.844 21.8436 32.9554 21.7324 32.9554 21.6004V18.3999C32.9554 18.2679 32.844 18.1567 32.7123 18.1567H31.2025C30.0497 18.1567 29.0596 17.4949 28.6186 16.43C28.1774 15.3652 28.4097 14.1975 29.2248 13.3821L30.2924 12.3146C30.3536 12.2534 30.3626 12.1804 30.3626 12.1428C30.3626 12.1046 30.3536 12.0316 30.2924 11.9708L28.0294 9.70768C27.9683 9.64651 27.8954 9.63729 27.8573 9.63729C27.8195 9.63729 27.7466 9.64651 27.6854 9.70768L26.6178 10.7752C25.8028 11.5903 24.6349 11.8228 23.5698 11.3817C22.5048 10.9407 21.8433 9.95018 21.8433 8.7976V7.28753C21.8433 7.15596 21.7319 7.04471 21.6003 7.04471H18.3997C18.2679 7.04471 18.1565 7.15596 18.1565 7.28753V8.79753C18.1565 9.95011 17.4951 10.9402 16.4301 11.3816C15.3651 11.8226 14.1972 11.5901 13.3822 10.7751L12.3146 9.70761C12.2534 9.64643 12.1806 9.63721 12.1426 9.63721C12.1046 9.63721 12.0317 9.64643 11.9707 9.70761L9.70748 11.9707C9.6463 12.0315 9.63724 12.1045 9.63724 12.1428C9.63724 12.1803 9.6463 12.2533 9.70748 12.3145L10.7752 13.382C11.5902 14.1971 11.8225 15.3651 11.3815 16.43C10.9403 17.4949 9.95013 18.1566 8.79755 18.1566H7.28763C7.15584 18.1566 7.04443 18.2678 7.04443 18.3998L7.04459 21.6003C7.04459 21.7323 7.15584 21.8435 7.28771 21.8435H8.79763C9.95029 21.8435 10.9404 22.505 11.3815 23.5703C11.8226 24.6351 11.5902 25.8032 10.7753 26.6178L9.70755 27.6857C9.64638 27.7468 9.63732 27.8194 9.63732 27.8577C9.63724 27.8954 9.6463 27.9687 9.70748 28.0296ZM13.1432 31.121L14.2109 30.0539C14.6915 29.5727 15.3535 29.4415 15.9815 29.7017C16.6097 29.9618 16.9847 30.5226 16.9847 31.2025V32.7125C16.9847 33.4928 17.6194 34.1274 18.3998 34.1274H21.6004C22.3806 34.1274 23.0154 33.4928 23.0154 32.7125V31.2025C23.0154 30.5226 23.3904 29.9618 24.0185 29.7017C24.6466 29.4415 25.3086 29.5727 25.7893 30.0539L26.857 31.121C27.1236 31.3882 27.479 31.5345 27.8575 31.5345C28.2362 31.5345 28.5915 31.3882 28.8581 31.121L31.1214 28.8579C31.3879 28.5915 31.5347 28.236 31.5347 27.8579C31.5347 27.4792 31.3879 27.1235 31.1214 26.8571L30.0537 25.7889C29.5729 25.3088 29.4413 24.6471 29.7015 24.0188C29.9615 23.3905 30.5228 23.0154 31.2027 23.0154H32.7126C33.4929 23.0154 34.1276 22.3806 34.1276 21.6005V18.4C34.1276 17.6196 33.4928 16.985 32.7126 16.985H31.2027C30.5228 16.985 29.9616 16.61 29.7015 15.9817C29.4412 15.3538 29.5729 14.6917 30.0537 14.2108L31.1214 13.1433C31.3879 12.8765 31.5347 12.5214 31.5347 12.1429C31.5347 11.7642 31.3879 11.4085 31.1214 11.1421L28.8581 8.87901C28.5915 8.61221 28.2362 8.46557 27.8575 8.46557C27.479 8.46557 27.1236 8.61221 26.857 8.87901L25.7893 9.94651C25.3085 10.4274 24.6466 10.5592 24.0185 10.2988C23.3904 10.0387 23.0154 9.47745 23.0154 8.7976V7.28753C23.0154 6.50745 22.3806 5.8726 21.6004 5.8726H18.3998C17.6194 5.8726 16.9847 6.50745 16.9847 7.28753V8.79753C16.9847 9.47737 16.6097 10.0385 15.9815 10.2987C15.3534 10.5592 14.6915 10.4273 14.2109 9.94643L13.1432 8.87893C12.8765 8.61214 12.5212 8.4655 12.1426 8.4655C11.764 8.4655 11.4085 8.61214 11.1419 8.87893L8.87881 11.1421C8.61209 11.4085 8.46529 11.764 8.46529 12.1428C8.46529 12.5213 8.61209 12.8764 8.87881 13.1432L9.94646 14.2107C10.4272 14.6916 10.5587 15.3534 10.2987 15.9816C10.0385 16.6099 9.47724 16.985 8.79748 16.985H7.28763C6.5074 16.985 5.87263 17.6195 5.87263 18.3999V21.6004C5.87263 22.3805 6.5074 23.0153 7.28763 23.0153H8.79755C9.47732 23.0153 10.0386 23.3904 10.2988 24.0187C10.5589 24.6469 10.4273 25.3087 9.94654 25.7889L8.87888 26.8571C8.61216 27.1235 8.46537 27.479 8.46537 27.8578C8.46537 28.2359 8.61216 28.5915 8.87888 28.8578L11.142 31.121C11.4086 31.3881 11.764 31.5344 12.1426 31.5344C12.5212 31.5344 12.8765 31.3882 13.1432 31.121Z" fill="#44CE6F"/>
</g>
<defs>
<clipPath id="clip0_23_1189">
<rect width="40" height="40" fill="white"/>
</clipPath>
</defs>
</svg>
