<svg width="40" height="40" viewBox="0 0 40 40" fill="none" xmlns="http://www.w3.org/2000/svg">
<path d="M12.5 23.125C12.5 22.78 12.2206 22.5 11.875 22.5H5.625C5.27938 22.5 5 22.78 5 23.125V32.5H12.5V23.125Z" fill="#DFF7DF"/>
<path d="M34.375 10H28.125C27.7794 10 27.5 10.28 27.5 10.625V32.5H35V10.625C35 10.28 34.7206 10 34.375 10Z" fill="#DFF7DF"/>
<path d="M17.5 10.0875V15H20V5H10V7.5H14.7937L5 15.625L7.5 18.75L17.5 10.0875Z" fill="#DFF7DF"/>
<path d="M5.625 35H11.875C12.2206 35 12.5 34.72 12.5 34.375V23.125C12.5 22.78 12.2206 22.5 11.875 22.5H5.625C5.27938 22.5 5 22.78 5 23.125V34.375C5 34.72 5.27938 35 5.625 35ZM6.25 23.75H11.25V31.25H6.25V23.75ZM6.25 32.5H11.25V33.75H6.25V32.5Z" fill="#44CE6F"/>
<path d="M16.25 16.875V34.375C16.25 34.72 16.5294 35 16.875 35H23.125C23.4706 35 23.75 34.72 23.75 34.375V16.875C23.75 16.53 23.4706 16.25 23.125 16.25H16.875C16.5294 16.25 16.25 16.53 16.25 16.875ZM17.5 17.5H22.5V31.25H17.5V17.5ZM17.5 32.5H22.5V33.75H17.5V32.5Z" fill="#44CE6F"/>
<path d="M34.375 10H28.125C27.7794 10 27.5 10.28 27.5 10.625V34.375C27.5 34.72 27.7794 35 28.125 35H34.375C34.7206 35 35 34.72 35 34.375V10.625C35 10.28 34.7206 10 34.375 10ZM33.75 33.75H28.75V32.5H33.75V33.75ZM33.75 31.25H28.75V11.25H33.75V31.25Z" fill="#44CE6F"/>
<path d="M5.125 16L7 18.5C7.10375 18.6381 7.26 18.7275 7.43125 18.7463C7.455 18.7487 7.4775 18.75 7.5 18.75C7.64813 18.75 7.79313 18.6975 7.90625 18.5994L16.25 11.4469V14.375C16.25 14.72 16.5294 15 16.875 15H19.375C19.7206 15 20 14.72 20 14.375V5.625C20 5.28 19.7206 5 19.375 5H10.625C10.2794 5 10 5.28 10 5.625V8.125C10 8.47 10.2794 8.75 10.625 8.75H13.0425L5.22938 15.1412C4.97 15.3531 4.92438 15.7319 5.125 16ZM15.1894 8.60875C15.3938 8.44125 15.4713 8.16375 15.3825 7.915C15.2938 7.66625 15.0581 7.5 14.7938 7.5H11.25V6.25H18.75V13.75H17.5V10.0875C17.5 9.84312 17.3575 9.62187 17.1363 9.51937C16.9137 9.41687 16.6531 9.45437 16.4688 9.61312L7.6 17.2162L6.485 15.7294L15.1894 8.60875Z" fill="#44CE6F"/>
</svg>
