<svg width="40" height="40" viewBox="0 0 40 40" fill="none" xmlns="http://www.w3.org/2000/svg">
<path d="M35.6626 10.0711V31.0998C35.6626 32.0816 34.8678 32.8763 33.886 32.8763H6.11372C5.1319 32.8763 4.33716 32.0816 4.33716 31.0998V10.0711C4.33716 9.08929 5.1319 8.29456 6.11372 8.29456H33.886C34.8678 8.29456 35.6626 9.08929 35.6626 10.0711Z" fill="white"/>
<path d="M4.33716 28.5255V31.0997C4.33716 32.0815 5.1319 32.8763 6.11372 32.8763H33.886C34.8678 32.8763 35.6626 32.0815 35.6626 31.0997V28.5255H4.33716Z" fill="#DFF7DF"/>
<path d="M14.9603 32.8762H24.7133V35.8129H14.9603V32.8762Z" fill="white"/>
<path d="M14.9603 32.8762H24.7133V34.0074H14.9603V32.8762Z" fill="white"/>
<path d="M24.55 35.813H15.1234C13.7818 35.813 12.6942 36.9006 12.6942 38.2422L26.9792 38.2422C26.9792 36.9006 25.8916 35.813 24.55 35.813Z" fill="white"/>
<path d="M12.8977 37.2705C12.7675 37.5682 12.6942 37.8964 12.6942 38.2422H26.9792C26.9792 37.8964 26.9059 37.5682 26.7757 37.2705H12.8977Z" fill="white"/>
<path d="M35.6627 11.6848V10.071C35.6627 9.08925 34.868 8.29449 33.8861 8.29449H6.11383C5.13202 8.29449 4.33728 9.08925 4.33728 10.071V11.6848H35.6627Z" fill="#DFF7DF"/>
<path d="M19.8369 31.8059C20.3716 31.8059 20.8051 31.3724 20.8051 30.8377C20.8051 30.303 20.3716 29.8696 19.8369 29.8696C19.3022 29.8696 18.8688 30.303 18.8688 30.8377C18.8688 31.3724 19.3022 31.8059 19.8369 31.8059Z" fill="white"/>
<path d="M6.29822 23.2276H8.19375V25.8925H6.29822V23.2276Z" fill="#DFF7DF"/>
<path d="M9.63684 20.1561H11.5324V25.8924H9.63684V20.1561Z" fill="#DFF7DF"/>
<path d="M12.9758 21.9177H14.8714V25.8925H12.9758V21.9177Z" fill="#DFF7DF"/>
<path d="M16.3146 18.9818H18.2101V25.8924H16.3146V18.9818Z" fill="#DFF7DF"/>
<path d="M19.6536 17.1301H21.5491V25.8925H19.6536V17.1301Z" fill="#DFF7DF"/>
<path d="M29.1645 13.8965C26.5889 13.8965 24.4971 15.9849 24.4971 18.5606C24.4971 21.1397 26.5889 23.2281 29.1645 23.2281C31.7402 23.2281 33.8321 21.1397 33.8321 18.5606C33.8321 15.9849 31.7402 13.8965 29.1645 13.8965ZM29.1645 21.2267C27.6957 21.2267 26.4984 20.0328 26.4984 18.5606C26.4984 17.0917 27.6957 15.8944 29.1645 15.8944C30.6334 15.8944 31.8307 17.0917 31.8307 18.5606C31.8307 20.0328 30.6334 21.2267 29.1645 21.2267Z" fill="#DFF7DF"/>
<path d="M29.3989 13.9083V15.9063C30.7585 16.0257 31.8308 17.1708 31.8308 18.5605C31.8308 19.9535 30.7585 21.0957 29.3989 21.2148V23.2162C31.8653 23.0933 33.8321 21.0605 33.8321 18.5605C33.8321 16.064 31.8653 14.0312 29.3989 13.9083Z" fill="#DFF7DF"/>
<path d="M7.3448 5.18063C8.02792 5.18063 8.5817 4.62686 8.5817 3.94374C8.5817 3.26062 8.02792 2.70685 7.3448 2.70685C6.66169 2.70685 6.10791 3.26062 6.10791 3.94374C6.10791 4.62686 6.66169 5.18063 7.3448 5.18063Z" fill="#DFF7DF"/>
<path d="M13.3044 4.21091C13.9875 4.21091 14.5413 3.65713 14.5413 2.97401C14.5413 2.2909 13.9875 1.73712 13.3044 1.73712C12.6213 1.73712 12.0675 2.2909 12.0675 2.97401C12.0675 3.65713 12.6213 4.21091 13.3044 4.21091Z" fill="#DFF7DF"/>
<path d="M20 4.56662C20.6831 4.56662 21.2368 4.01284 21.2368 3.32973C21.2368 2.64661 20.6831 2.09283 20 2.09283C19.3168 2.09283 18.7631 2.64661 18.7631 3.32973C18.7631 4.01284 19.3168 4.56662 20 4.56662Z" fill="#DFF7DF"/>
<path d="M26.6951 4.21091C27.3783 4.21091 27.932 3.65713 27.932 2.97401C27.932 2.2909 27.3783 1.73712 26.6951 1.73712C26.012 1.73712 25.4583 2.2909 25.4583 2.97401C25.4583 3.65713 26.012 4.21091 26.6951 4.21091Z" fill="#DFF7DF"/>
<path d="M32.6551 5.18057C33.3382 5.18057 33.892 4.6268 33.892 3.94368C33.892 3.26056 33.3382 2.70679 32.6551 2.70679C31.972 2.70679 31.4182 3.26056 31.4182 3.94368C31.4182 4.6268 31.972 5.18057 32.6551 5.18057Z" fill="#DFF7DF"/>
<path d="M36.1013 37.8743H27.3407C27.1835 36.6769 26.2737 35.7134 25.1016 35.4797V33.2646H33.8861C35.0796 33.2646 36.0509 32.2933 36.0509 31.0998C36.0509 27.9045 36.0509 29.1057 36.0509 26.5796C36.0509 26.3649 35.8772 26.1912 35.6625 26.1912C35.4479 26.1912 35.2742 26.3649 35.2742 26.5796V28.1372H4.72538V12.073H35.2742V24.3792C35.2742 24.5938 35.4479 24.7675 35.6625 24.7675C35.8772 24.7675 36.0509 24.5938 36.0509 24.3792C36.0509 20.4856 36.0509 13.4033 36.0509 10.0709C36.0509 8.87744 35.0796 7.90619 33.8861 7.90619H29.472V5.78695C29.472 4.98447 30.1247 4.33178 30.9272 4.33178H31.0821C31.2573 5.04003 31.8934 5.56851 32.6551 5.56851C33.5512 5.56851 34.2801 4.83959 34.2801 3.94343C34.2801 3.04727 33.5512 2.31836 32.6551 2.31836C31.8934 2.31836 31.2573 2.84684 31.0821 3.55508H30.9272C29.6966 3.55508 28.6953 4.5563 28.6953 5.78695V7.90619H24.5623V5.84422C24.5623 5.3933 24.766 4.97537 25.1209 4.69813L25.6975 4.2473C25.9738 4.46428 26.3174 4.59915 26.6952 4.59915C27.5914 4.59915 28.3203 3.87024 28.3203 2.97408C28.3203 2.07791 27.5914 1.349 26.6952 1.349C25.799 1.349 25.0701 2.07791 25.0701 2.97408C25.0701 3.21106 25.1238 3.43477 25.2154 3.63795L24.6423 4.08603C24.0977 4.51192 23.7856 5.15285 23.7856 5.84422V7.90619H20.3883V4.90279C21.0965 4.72757 21.625 4.09143 21.625 3.32981C21.625 2.43365 20.8961 1.70473 20 1.70473C19.1038 1.70473 18.3749 2.43365 18.3749 3.32981C18.3749 4.09143 18.9034 4.72757 19.6116 4.90279V7.90619H16.2143V5.84422C16.2143 5.15285 15.9018 4.51192 15.3572 4.08603L14.7842 3.638C14.8757 3.43477 14.9294 3.2111 14.9294 2.97408C14.9294 2.07791 14.2005 1.349 13.3043 1.349C12.4082 1.349 11.6793 2.07791 11.6793 2.97408C11.6793 3.87024 12.4082 4.59915 13.3043 4.59915C13.6821 4.59915 14.0257 4.46428 14.302 4.2473L14.8786 4.69813C15.234 4.97574 15.4376 5.39368 15.4376 5.84422V7.90619H11.3046V5.78695C11.3046 4.5563 10.3034 3.55508 9.0727 3.55508H8.91782C8.74261 2.84684 8.1065 2.31836 7.34485 2.31836C6.44869 2.31836 5.71977 3.04727 5.71977 3.94343C5.71977 4.83959 6.44869 5.56851 7.34485 5.56851C8.1065 5.56851 8.74261 5.04003 8.91782 4.33178H9.0727C9.87519 4.33178 10.5279 4.98447 10.5279 5.78695V7.90619H6.11381C4.91994 7.90619 3.94869 8.87744 3.94869 10.0709V31.0998C3.94869 32.2933 4.91994 33.2646 6.11381 33.2646H14.5718V35.4797C13.3997 35.7134 12.4899 36.6769 12.3326 37.8743H3.62102C3.40636 37.8743 3.23267 38.048 3.23267 38.2627C3.23267 38.4773 3.40636 38.651 3.62102 38.651H36.1013C36.3159 38.651 36.4896 38.4773 36.4896 38.2627C36.4896 38.048 36.3159 37.8743 36.1013 37.8743ZM32.6551 3.09506C33.1227 3.09506 33.5035 3.47582 33.5035 3.94343C33.5035 4.41104 33.1227 4.79181 32.6551 4.79181C32.1875 4.79181 31.8067 4.41104 31.8067 3.94343C31.8067 3.47582 32.1875 3.09506 32.6551 3.09506ZM26.6952 2.1257C27.1628 2.1257 27.5436 2.50646 27.5436 2.97408C27.5436 3.44169 27.1628 3.82245 26.6952 3.82245C26.2276 3.82245 25.8468 3.44169 25.8468 2.97408C25.8468 2.50646 26.2276 2.1257 26.6952 2.1257ZM19.1516 3.32981C19.1516 2.8622 19.5323 2.48143 20 2.48143C20.4676 2.48143 20.8483 2.8622 20.8483 3.32981C20.8483 3.79742 20.4676 4.17819 20 4.17819C19.5323 4.17819 19.1516 3.79742 19.1516 3.32981ZM12.456 2.97408C12.456 2.50646 12.8367 2.1257 13.3043 2.1257C13.772 2.1257 14.1527 2.50646 14.1527 2.97408C14.1527 3.13459 14.1053 3.28326 14.0275 3.41144H14.019V3.42709C13.5886 4.10332 12.456 3.85589 12.456 2.97408ZM7.34485 4.79181C6.87724 4.79181 6.49647 4.41104 6.49647 3.94343C6.49647 3.47582 6.87724 3.09506 7.34485 3.09506C7.81246 3.09506 8.19322 3.47582 8.19322 3.94343C8.19322 4.41104 7.81246 4.79181 7.34485 4.79181ZM4.72538 10.0709C4.72538 9.30561 5.34811 8.68289 6.11381 8.68289H33.8861C34.6514 8.68289 35.2742 9.30561 35.2742 10.0709V11.2963H4.72538V10.0709ZM4.72538 31.0998V28.9139H35.2742V31.0998C35.2742 31.8652 34.6514 32.4879 33.8861 32.4879C29.6577 32.4879 9.60537 32.4879 6.11381 32.4879C5.34811 32.4879 4.72538 31.8652 4.72538 31.0998ZM24.3249 33.2646V35.4248H15.3485V33.2646H24.3249ZM15.1232 36.2015H24.5502C25.5427 36.2015 26.3721 36.9137 26.5537 37.8539H13.1197C13.3013 36.9137 14.1307 36.2015 15.1232 36.2015Z" fill="#44CE6F"/>
<path d="M1.99901 37.8743H1.37211C1.15746 37.8743 0.983765 38.048 0.983765 38.2627C0.983765 38.4773 1.15746 38.651 1.37211 38.651H1.99901C2.21366 38.651 2.38736 38.4773 2.38736 38.2627C2.38736 38.048 2.21366 37.8743 1.99901 37.8743Z" fill="#44CE6F"/>
<path d="M38.6279 37.8743H37.6263C37.4116 37.8743 37.2379 38.048 37.2379 38.2627C37.2379 38.4773 37.4116 38.651 37.6263 38.651H38.6279C38.8425 38.651 39.0162 38.4773 39.0162 38.2627C39.0162 38.048 38.8425 37.8743 38.6279 37.8743Z" fill="#44CE6F"/>
<path d="M19.8369 32.1943C20.5848 32.1943 21.1935 31.5856 21.1935 30.8378C21.1935 30.0899 20.5848 29.4812 19.8369 29.4812C19.0887 29.4812 18.48 30.0899 18.48 30.8378C18.48 31.5856 19.0887 32.1943 19.8369 32.1943ZM19.8369 30.2579C20.1566 30.2579 20.4168 30.5181 20.4168 30.8378C20.4168 31.1575 20.1566 31.4176 19.8369 31.4176C19.5168 31.4176 19.2567 31.1575 19.2567 30.8378C19.2567 30.5181 19.5168 30.2579 19.8369 30.2579Z" fill="#44CE6F"/>
<path d="M7.0555 9.60144H6.44719C6.23253 9.60144 6.05884 9.77514 6.05884 9.98979C6.05884 10.2044 6.23253 10.3781 6.44719 10.3781H7.0555C7.27015 10.3781 7.44385 10.2044 7.44385 9.98979C7.44385 9.77514 7.27015 9.60144 7.0555 9.60144Z" fill="#44CE6F"/>
<path d="M9.06661 9.60144H8.4583C8.24364 9.60144 8.06995 9.77514 8.06995 9.98979C8.06995 10.2044 8.24364 10.3781 8.4583 10.3781H9.06661C9.28126 10.3781 9.45496 10.2044 9.45496 9.98979C9.45496 9.77514 9.28126 9.60144 9.06661 9.60144Z" fill="#44CE6F"/>
<path d="M11.0775 9.60144H10.4692C10.2545 9.60144 10.0808 9.77514 10.0808 9.98979C10.0808 10.2044 10.2545 10.3781 10.4692 10.3781H11.0775C11.2921 10.3781 11.4658 10.2044 11.4658 9.98979C11.4658 9.77514 11.2921 9.60144 11.0775 9.60144Z" fill="#44CE6F"/>
<path d="M33.18 9.60144H26.946C26.7313 9.60144 26.5576 9.77514 26.5576 9.98979C26.5576 10.2044 26.7313 10.3781 26.946 10.3781H33.18C33.3947 10.3781 33.5684 10.2044 33.5684 9.98979C33.5684 9.77514 33.3947 9.60144 33.18 9.60144Z" fill="#44CE6F"/>
<path d="M8.19359 22.8394H6.29812C6.08346 22.8394 5.90977 23.0131 5.90977 23.2278V25.504H5.65605C5.4414 25.504 5.2677 25.6777 5.2677 25.8924C5.2677 26.107 5.4414 26.2807 5.65605 26.2807H6.29812H8.19359H9.63701H11.5325H12.9759H14.8714H16.3144H18.2103H19.6533H21.5492H22.1912C22.4059 26.2807 22.5796 26.107 22.5796 25.8924C22.5796 25.6777 22.4059 25.504 22.1912 25.504H21.9375V17.1302C21.9375 16.9156 21.7638 16.7419 21.5492 16.7419H19.6533C19.4387 16.7419 19.265 16.9156 19.265 17.1302V25.504H18.5986V18.9821C18.5986 18.7674 18.4249 18.5937 18.2103 18.5937H16.3144C16.0998 18.5937 15.9261 18.7674 15.9261 18.9821V25.504H15.2597V21.9179C15.2597 21.7032 15.086 21.5295 14.8714 21.5295H12.9759C12.7613 21.5295 12.5876 21.7032 12.5876 21.9179V25.504H11.9208V20.1562C11.9208 19.9416 11.7471 19.7679 11.5325 19.7679H9.63701C9.42236 19.7679 9.24866 19.9416 9.24866 20.1562V25.504H8.58194V23.2278C8.58194 23.0131 8.40825 22.8394 8.19359 22.8394ZM6.68647 25.504V23.6161H7.80525V25.504H6.68647ZM20.0417 17.5186H21.1608V25.504H20.0417V17.5186ZM16.7028 19.3704H17.8219V25.504H16.7028V19.3704ZM13.3643 22.3062H14.483V25.504H13.3643V22.3062ZM10.0254 20.5446H11.1441V25.504H10.0254V20.5446Z" fill="#44CE6F"/>
<path d="M27.021 23.1406C27.6949 23.4565 28.4159 23.6165 29.1645 23.6165C31.9524 23.6165 34.2206 21.3482 34.2206 18.5604C34.2206 15.7744 31.9524 13.5081 29.1645 13.5081C26.3767 13.5081 24.1088 15.7744 24.1088 18.5604C24.1088 19.8138 24.5711 21.0168 25.4107 21.9471C25.5545 22.1067 25.8002 22.1189 25.9591 21.9751C26.1184 21.8314 26.1309 21.586 25.9872 21.4267C25.2768 20.6394 24.8855 19.6215 24.8855 18.5604C24.8855 16.2026 26.8052 14.2848 29.1645 14.2848C31.5242 14.2848 33.4439 16.2026 33.4439 18.5604C33.4439 20.9201 31.5242 22.8398 29.1645 22.8398C28.5308 22.8398 27.9206 22.7044 27.351 22.4374C27.1556 22.346 26.9254 22.4302 26.8344 22.624C26.7434 22.8182 26.8268 23.0495 27.021 23.1406Z" fill="#44CE6F"/>
<path d="M29.1646 21.6148C30.8488 21.6148 32.219 20.2446 32.219 18.5604C32.219 16.8761 30.8488 15.5059 29.1646 15.5059C27.4803 15.5059 26.1101 16.8761 26.1101 18.5604C26.1101 20.2446 27.4803 21.6148 29.1646 21.6148ZM29.1646 16.2826C30.4206 16.2826 31.4423 17.3043 31.4423 18.5604C31.4423 19.8164 30.4206 20.8381 29.1646 20.8381C27.9085 20.8381 26.8868 19.8164 26.8868 18.5604C26.8868 17.3043 27.9085 16.2826 29.1646 16.2826Z" fill="#44CE6F"/>
</svg>
